<?xml version="1.0" standalone="no"?>
<!DOCTYPE svg PUBLIC "-//W3C//DTD SVG 20010904//EN"
 "http://www.w3.org/TR/2001/REC-SVG-20010904/DTD/svg10.dtd">
<svg version="1.0" xmlns="http://www.w3.org/2000/svg"
 width="1024.000000pt" height="1024.000000pt" viewBox="0 0 1024.000000 1024.000000"
 preserveAspectRatio="xMidYMid meet">

<g transform="translate(0.000000,1024.000000) scale(0.100000,-0.100000)"
fill="#000000" stroke="none">
<path d="M4665 8088 c-56 -29 -74 -46 -101 -100 -31 -62 -31 -127 0 -193 12
-27 30 -56 39 -64 13 -11 17 -31 17 -97 l0 -83 -32 -5 c-18 -3 -67 -10 -108
-17 -109 -16 -366 -83 -507 -131 -67 -23 -124 -40 -125 -37 -2 2 -21 40 -43
84 -85 170 -263 305 -448 340 -158 30 -281 13 -435 -61 -213 -103 -339 -298
-349 -544 -6 -130 13 -226 63 -328 l36 -74 -24 -25 c-12 -14 -90 -87 -173
-161 -207 -188 -655 -608 -930 -872 -66 -63 -155 -144 -198 -180 -75 -63 -79
-65 -159 -77 -340 -52 -515 -392 -361 -697 60 -119 220 -228 354 -242 65 -6
65 -6 150 -88 47 -44 100 -94 119 -110 19 -16 114 -106 210 -200 96 -94 383
-376 637 -625 l463 -453 0 -53 c0 -295 202 -571 480 -657 107 -33 283 -32 390
1 95 29 172 69 238 120 28 23 56 41 61 41 6 0 59 -16 118 -35 128 -41 360 -96
423 -99 25 -2 57 -4 72 -4 l26 -2 -14 -47 c-17 -55 -17 -76 -3 -126 23 -85
111 -146 209 -147 153 0 258 152 204 294 -5 14 8 16 111 16 106 0 117 -2 111
-17 -38 -98 0 -205 92 -264 39 -24 56 -29 112 -29 56 0 73 5 112 29 65 41 101
106 101 180 0 31 -3 65 -7 77 -6 20 1 23 131 48 283 56 527 127 727 210 l101
43 60 -28 c90 -43 156 -54 244 -40 218 33 378 200 399 417 l7 69 69 50 c142
103 176 134 1203 1112 321 305 326 309 394 317 104 11 236 80 300 154 42 49
94 153 109 214 23 100 7 226 -41 325 -30 62 -132 164 -196 197 -63 31 -153 56
-205 56 -33 0 -48 10 -130 85 -51 47 -122 113 -158 148 -36 35 -129 124 -207
199 l-143 137 0 434 0 435 30 64 c143 306 3 652 -306 759 -191 65 -420 11
-568 -134 -159 -157 -202 -415 -105 -623 l22 -46 -45 -44 -44 -45 -102 60
c-162 96 -379 199 -520 245 -35 12 -52 22 -48 31 2 7 10 58 17 113 19 158 -10
298 -91 432 -78 131 -195 235 -320 286 -33 13 -104 32 -157 41 -274 46 -539
-75 -689 -313 -24 -38 -53 -95 -65 -127 l-22 -59 -36 6 c-20 3 -98 6 -173 6
l-138 0 0 79 c0 73 2 83 34 130 59 87 58 174 -4 258 -59 80 -177 107 -265 61z
m1395 -323 c60 -21 156 -94 174 -133 9 -18 20 -31 24 -29 4 3 8 -24 10 -60 3
-60 1 -68 -24 -94 -49 -52 -125 -34 -154 36 -8 19 -9 19 -9 1 -1 -18 37 -61
74 -82 13 -7 19 -21 18 -46 -1 -43 -46 -144 -76 -169 -34 -29 -76 -51 -88 -44
-5 4 -8 1 -7 -7 2 -10 -16 -14 -72 -16 -63 -2 -85 1 -130 22 -62 27 -108 71
-140 134 -17 33 -22 61 -23 130 -2 116 14 154 113 264 84 95 204 130 310 93z
m-2748 -236 c148 -32 231 -110 283 -268 38 -116 3 -278 -80 -370 -41 -45 -47
-45 -53 -3 -2 15 -7 29 -13 30 -5 2 -9 19 -9 38 0 36 -22 48 -34 18 -5 -12
-10 -13 -19 -6 -10 8 -21 7 -43 -6 -21 -12 -54 -16 -119 -17 -81 0 -94 3 -130
26 -103 68 -140 135 -140 254 0 128 8 196 23 204 8 4 12 12 10 17 -4 12 69 59
122 77 54 19 130 21 202 6z m4646 -63 c36 -19 78 -65 91 -99 20 -52 -32 -127
-87 -127 -35 0 -60 17 -87 60 -24 38 -26 38 -51 25 -27 -14 -62 -7 -91 17 -19
16 -16 72 6 99 15 19 29 24 75 24 30 1 59 4 62 8 12 12 53 8 82 -7z m-2924
-156 c174 0 182 -2 189 -54 21 -148 101 -300 216 -409 l61 -58 0 -150 c0 -82
-2 -149 -5 -149 -3 0 -48 11 -101 25 -104 27 -339 50 -435 42 l-59 -5 1 397
c1 218 3 388 6 379 4 -16 19 -18 127 -18z m-416 -432 l-3 -392 -69 -19 c-89
-23 -217 -83 -279 -130 l-47 -37 -232 229 -232 229 47 94 c25 51 52 120 58
154 l11 60 61 27 c165 72 541 173 650 176 l37 1 -2 -392z m1291 31 c30 0 74 3
98 7 l43 6 0 -46 c0 -26 -4 -45 -9 -41 -6 3 -8 -69 -5 -182 4 -173 6 -187 25
-201 11 -7 50 -40 86 -72 111 -96 218 -140 348 -140 195 0 358 90 460 255 36
57 53 75 76 80 17 4 29 13 30 23 0 14 2 14 6 2 3 -8 11 -18 17 -22 6 -4 -1
-11 -17 -17 -15 -6 -27 -13 -27 -15 0 -3 8 -2 17 1 12 5 15 2 11 -8 -4 -11 1
-15 23 -13 31 2 39 -10 13 -20 -14 -5 -14 -9 -3 -22 12 -14 14 -14 27 3 11 14
15 15 19 4 5 -11 7 -11 14 0 7 11 9 10 9 -5 0 -13 -5 -17 -20 -13 -11 3 -20 1
-20 -4 0 -5 7 -9 15 -9 8 0 15 -4 15 -10 0 -5 -6 -10 -12 -10 -9 0 -9 -3 -2
-8 6 -4 14 -16 19 -27 8 -18 9 -18 13 8 2 15 8 27 13 27 15 0 10 -44 -8 -69
-9 -14 -12 -21 -6 -18 5 4 15 -5 22 -19 13 -29 15 -106 2 -85 -12 19 -24 -4
-15 -32 3 -12 3 -19 -2 -14 -4 4 -14 -12 -22 -35 -8 -24 -23 -56 -34 -71 -11
-16 -17 -31 -14 -34 3 -4 6 -1 6 5 0 7 16 12 40 12 33 0 40 3 40 20 0 18 7 20
71 20 49 0 75 -4 85 -15 9 -8 12 -15 7 -15 -4 0 -1 -5 7 -10 12 -8 11 -10 -7
-10 -13 0 -23 -5 -23 -11 0 -5 -6 -7 -12 -3 -10 6 -10 5 -1 -7 8 -9 9 -20 3
-29 -7 -11 -10 -12 -10 -2 0 7 -4 11 -9 8 -5 -4 -7 2 -5 11 2 10 -4 29 -15 42
-17 23 -20 23 -35 9 -9 -9 -16 -28 -16 -42 0 -20 -5 -26 -22 -26 -17 0 -20 -3
-9 -9 12 -8 12 -10 0 -14 -8 -2 -2 -3 13 -1 15 2 30 -2 34 -8 5 -7 2 -9 -8 -5
-9 3 -20 1 -25 -4 -6 -6 -206 -12 -484 -15 l-474 -6 -140 142 c-77 78 -167
162 -200 186 -33 25 -67 50 -76 57 -8 7 -22 13 -30 15 -31 8 -39 25 -37 86 l1
61 6 -64 c4 -41 11 -66 19 -69 11 -3 12 0 4 14 -13 27 -23 151 -28 358 l-4
178 38 -7 c20 -4 61 -7 91 -6z m-2469 -78 c0 -5 -7 -12 -16 -15 -14 -5 -15 -4
-4 9 14 17 20 19 20 6z m4539 -373 c1 -126 -1 -228 -3 -228 -2 0 -39 36 -82
81 -44 44 -107 104 -141 132 l-63 50 0 137 0 137 98 0 c58 0 113 6 137 14 l40
14 6 -55 c4 -30 7 -157 8 -282z m-932 140 c-3 -8 -6 -5 -6 6 -1 11 2 17 5 13
3 -3 4 -12 1 -19z m-4131 -43 c12 -8 55 -26 97 -40 131 -44 314 -34 464 26
l52 21 81 -78 c44 -44 80 -83 80 -87 0 -4 -12 5 -26 20 l-26 28 23 -34 c35
-52 270 -281 288 -281 10 1 7 6 -9 15 -14 7 -25 18 -25 25 0 6 -7 15 -15 20
-8 5 -10 10 -5 10 6 0 31 -20 55 -45 l44 -45 -51 0 c-77 0 -250 -19 -323 -35
-75 -16 -178 -54 -252 -91 -27 -14 -51 -24 -52 -22 -128 191 -215 256 -355
266 l-69 5 -94 88 -93 89 85 80 c47 44 90 80 95 80 6 0 20 -7 31 -15z m4237
-5 c8 -12 18 -20 23 -19 21 4 35 -2 29 -11 -8 -13 -57 -2 -72 17 -7 9 -13 10
-17 4 -7 -11 -36 -4 -36 10 0 4 7 5 17 2 11 -4 14 -3 9 5 -13 21 32 13 47 -8z
m164 -106 c-3 -3 -12 -4 -19 -1 -8 3 -5 6 6 6 11 1 17 -2 13 -5z m60 -71 c-4
-3 1 -16 10 -27 18 -21 18 -21 -4 -2 -20 16 -23 36 -6 36 4 0 3 -3 0 -7z
m-2064 -114 c346 -69 639 -284 820 -604 37 -65 74 -160 113 -292 2 -10 39 -13
137 -13 l134 0 7 -52 c28 -220 11 -444 -44 -610 -89 -267 -245 -508 -438 -678
-275 -242 -540 -351 -894 -367 l-128 -6 0 142 0 141 -37 0 c-62 0 -222 29
-313 56 -264 80 -508 280 -661 540 -96 164 -142 314 -158 524 -10 116 -9 135
14 247 31 156 50 221 91 311 99 218 279 414 492 536 244 139 560 185 865 125z
m2094 -66 c-3 -10 -5 -4 -5 12 0 17 2 24 5 18 2 -7 2 -21 0 -30z m-4840 -55
c46 -46 83 -87 82 -93 0 -5 -83 -84 -183 -175 -101 -91 -314 -287 -473 -437
l-290 -271 -46 61 c-25 34 -60 78 -76 98 l-31 36 123 114 c67 63 228 213 357
335 319 300 443 414 449 414 3 0 43 -37 88 -82z m438 -177 c45 -20 92 -70 101
-107 4 -14 4 -47 2 -73 -14 -147 -206 -204 -303 -89 -58 69 -55 153 8 225 55
63 119 78 192 44z m701 -263 c-59 -119 -82 -183 -113 -318 -45 -201 -26 -535
43 -750 8 -25 42 -100 75 -168 34 -68 59 -126 56 -128 -3 -3 -23 11 -44 31
-21 20 -54 45 -73 56 -19 10 -73 44 -120 74 -47 30 -94 59 -105 64 -11 5 -43
31 -70 57 -120 116 -182 255 -178 399 1 70 49 198 92 250 36 43 -72 -50 -119
-102 -49 -56 -117 -174 -139 -244 -7 -20 -12 -73 -13 -118 -2 -99 -15 -95 -49
17 -21 66 -24 97 -24 217 1 130 3 146 31 225 36 103 89 186 164 259 139 135
322 229 555 285 101 24 99 29 31 -106z m4685 -175 c93 -91 169 -170 169 -175
0 -4 -19 -32 -42 -61 -24 -29 -50 -62 -58 -74 -15 -22 -18 -20 -184 141 -93
89 -165 165 -160 169 5 3 27 42 49 86 22 45 44 81 48 81 5 0 85 -75 178 -167z
m-5722 70 c25 -21 50 -43 54 -50 4 -7 16 -13 26 -13 30 0 29 -9 -4 -73 -37
-70 -74 -184 -84 -258 l-6 -49 -96 -34 c-124 -42 -201 -97 -348 -244 l-113
-115 -101 102 -102 101 75 67 c41 38 106 100 145 138 145 145 490 462 504 464
2 1 25 -16 50 -36z m5528 -575 l45 -47 -22 -28 c-12 -15 -120 -123 -240 -240
l-219 -212 -32 16 c-113 57 -251 6 -305 -112 -53 -112 -7 -238 103 -287 46
-20 60 -34 19 -18 -18 7 -26 5 -30 -6 -3 -9 1 -14 13 -14 11 0 21 -6 24 -12 2
-9 23 -13 58 -12 92 1 133 30 372 267 119 118 273 267 342 332 l125 117 47
-40 c27 -22 57 -50 68 -62 l19 -21 -84 -82 c-47 -45 -119 -113 -160 -151 -41
-39 -138 -131 -215 -206 -77 -74 -185 -175 -240 -224 -55 -49 -180 -165 -277
-258 l-178 -170 -11 29 c-18 47 -73 153 -89 171 -9 9 -30 37 -47 62 -78 114
-160 187 -291 258 l-73 39 83 65 c119 93 212 196 298 329 l75 116 60 12 c135
28 244 107 294 211 23 48 26 67 25 155 0 64 -6 115 -16 142 -14 39 -14 43 2
48 9 3 52 30 96 60 l79 54 119 -117 c65 -64 139 -138 163 -164z m-6837 164
c26 -13 43 -33 68 -81 46 -92 40 -168 -20 -237 -38 -43 -70 -60 -131 -69 -126
-19 -238 76 -237 200 2 83 66 177 138 200 55 17 131 12 182 -13z m7656 -23
c48 -45 14 -132 -63 -165 -58 -25 -153 -11 -153 23 0 7 -5 13 -11 13 -15 0 -6
87 10 103 10 9 10 5 2 -16 -6 -16 -10 -40 -10 -55 2 -23 2 -24 6 -5 2 12 13
25 24 28 10 4 19 14 19 23 1 12 5 10 16 -8 8 -14 14 -18 13 -10 -4 42 3 72 20
89 15 15 26 17 60 11 23 -4 53 -18 67 -31z m-1617 17 c36 -19 89 -80 97 -112
11 -43 -2 -120 -24 -152 -32 -45 -103 -76 -158 -69 -52 5 -109 42 -143 92 -48
71 -7 190 81 234 50 24 107 27 147 7z m-528 -40 c7 -12 7 -16 1 -12 -6 3 -13
0 -15 -6 -3 -7 -6 -3 -6 9 -1 12 -4 30 -7 40 -5 15 -4 16 5 3 7 -8 16 -23 22
-34z m36 -131 c7 -78 6 -86 -12 -150 -20 -70 -64 -157 -76 -149 -5 3 -9 -1 -9
-9 0 -19 -34 -49 -45 -40 -4 5 -5 3 -1 -4 7 -13 -27 -37 -38 -26 -3 3 -6 -1
-6 -10 0 -11 -8 -17 -22 -18 -13 0 -17 -3 -10 -6 17 -6 -15 -32 -40 -33 -15 0
-14 6 7 43 14 24 25 58 25 80 0 20 5 37 10 37 6 0 10 9 10 20 0 12 7 20 16 20
23 0 44 25 44 54 0 19 5 26 20 26 17 0 20 7 20 40 0 33 3 40 20 40 13 0 20 7
20 20 0 14 7 20 21 20 20 0 21 4 17 51 -3 29 -3 61 0 72 5 19 6 19 15 -4 5
-13 11 -46 14 -74z m-4247 -179 c0 -44 67 -232 110 -307 89 -158 205 -285 355
-388 129 -89 368 -199 590 -271 39 -12 74 -26 80 -31 14 -14 -185 -201 -205
-193 -27 12 -223 16 -276 7 l-51 -10 -264 251 c-145 138 -363 349 -484 469
l-220 217 55 51 c116 107 276 228 303 229 4 0 7 -11 7 -24z m-832 -203 c80
-76 234 -223 342 -328 170 -165 502 -485 753 -724 42 -41 76 -78 75 -82 -2 -3
-33 -39 -71 -79 l-67 -73 -293 289 c-160 159 -451 447 -647 639 -195 193 -359
356 -364 364 -6 9 10 30 55 72 35 32 66 58 68 59 2 0 69 -62 149 -137z m4792
-87 c0 -3 -4 -8 -10 -11 -5 -3 -10 -1 -10 4 0 6 5 11 10 11 6 0 10 -2 10 -4z
m-2518 -885 c5 -13 134 -108 157 -116 19 -6 17 -9 -20 -45 -27 -26 -36 -40
-27 -44 9 -4 8 -5 -2 -3 -29 4 -147 -94 -135 -113 3 -6 0 -7 -9 -4 -9 3 -16 1
-16 -5 0 -6 -7 -11 -15 -11 -8 0 -15 5 -15 11 0 14 -51 81 -104 137 l-41 43
95 88 c74 70 98 87 112 80 9 -5 18 -13 20 -18z m2038 -109 c0 -2 -5 0 -12 4
-7 4 -8 3 -4 -4 4 -7 13 -12 20 -12 7 0 26 -29 41 -65 24 -57 27 -75 23 -136
-5 -66 -33 -142 -65 -177 -7 -7 -13 -18 -13 -23 0 -6 -27 -37 -59 -69 -66 -65
-137 -105 -269 -152 -110 -38 -128 -48 -178 -95 -45 -41 -63 -70 -75 -118 -4
-16 -7 85 -8 226 l-1 256 83 6 c85 6 174 35 245 79 20 13 41 22 45 20 5 -1 6
2 2 8 -3 5 -1 10 4 10 16 0 101 121 101 145 0 17 2 18 11 5 8 -12 10 -10 8 10
-4 69 2 120 17 134 14 15 14 16 -1 16 -9 0 -13 5 -9 11 4 7 23 -6 50 -32 24
-24 44 -45 44 -47z m-1533 -184 c-2 -13 -4 -5 -4 17 -1 22 1 32 4 23 2 -10 2
-28 0 -40z m-1013 2 c63 -24 138 -87 177 -149 150 -236 40 -549 -220 -625
-146 -43 -319 7 -415 120 -173 203 -116 518 116 635 34 17 82 35 107 40 66 12
172 2 235 -21z m1651 -299 l-8 -221 -162 0 -162 0 -6 152 c-12 259 -11 277 16
283 20 5 318 12 325 8 2 -1 1 -101 -3 -222z m1665 150 c37 -26 86 -104 93
-147 21 -132 -82 -239 -224 -232 -46 2 -63 7 -61 16 1 7 -3 12 -10 11 -31 -4
-42 3 -19 12 19 8 21 12 11 24 -11 13 -14 13 -25 -2 -11 -15 -15 -15 -30 -3
-15 12 -15 15 7 27 l23 14 -22 -6 c-13 -4 -23 -3 -24 2 0 4 -3 17 -6 28 -25
97 0 184 70 239 58 46 163 54 217 17z m-2429 -5 c48 -20 127 -27 133 -13 2 7
5 -104 5 -245 1 -142 -1 -258 -3 -258 -18 0 -36 15 -36 31 0 10 -4 19 -10 19
-5 0 -10 9 -10 20 0 17 -51 66 -68 64 -10 0 -30 20 -29 29 1 5 -26 19 -60 31
-84 31 -192 102 -191 126 0 3 -3 22 -7 43 -5 24 -3 49 4 64 10 21 9 28 -1 34
-9 6 -6 9 10 9 12 0 22 6 22 14 0 8 5 18 12 22 7 5 8 3 3 -7 -5 -8 1 -6 12 4
44 39 139 44 214 13z m-370 -391 c20 13 7 -23 -16 -45 -28 -27 -30 -23 -13 34
8 25 14 34 16 23 2 -9 8 -15 13 -12z m69 -70 c7 -9 11 -18 8 -21 -8 -8 -97 19
-92 28 9 14 71 9 84 -7z m95 -35 c-3 -5 -12 -10 -18 -10 -7 0 -6 4 3 10 19 12
23 12 15 0z m1270 -70 c3 -5 1 -10 -4 -10 -6 0 -11 5 -11 10 0 6 2 10 4 10 3
0 8 -4 11 -10z"/>
<path d="M7191 6304 c0 -11 3 -14 6 -6 3 7 2 16 -1 19 -3 4 -6 -2 -5 -13z"/>
<path d="M7050 6016 c0 -2 7 -6 15 -10 8 -3 15 -1 15 4 0 6 -7 10 -15 10 -8 0
-15 -2 -15 -4z"/>
<path d="M4860 6031 c-365 -81 -628 -322 -718 -660 -21 -83 -25 -118 -26 -251
0 -190 20 -286 94 -435 118 -238 328 -415 585 -490 181 -53 419 -44 606 25
388 141 651 545 626 959 -3 53 -10 107 -15 121 -9 24 -10 24 -32 -23 -37 -78
-111 -152 -197 -194 -67 -33 -86 -38 -168 -41 -148 -7 -238 27 -343 130 -67
66 -97 115 -118 198 -22 85 -15 214 15 292 42 110 167 228 273 260 21 6 38 14
38 18 0 11 -108 57 -190 80 -110 31 -316 36 -430 11z"/>
<path d="M6625 2990 c-3 -5 -1 -10 4 -10 6 0 11 5 11 10 0 6 -2 10 -4 10 -3 0
-8 -4 -11 -10z"/>
</g>
</svg>
